HIERARCHY
ROOT Hips
{
	OFFSET 0.000000 0.000000 0.000000 
	CHANNELS 6 Xposition Yposition Zposition Zrotation Yrotation Xrotation
	JOINT LeftUpLeg
	{
		OFFSET 1.363060 -1.794630 0.839290 
		CHANNELS 3 Zrotation Yrotation Xrotation
		JOINT LeftLeg
		{
			OFFSET 2.448110 -6.726130 0.000000 
			CHANNELS 3 Zrotation Yrotation Xrotation
			JOINT LeftFoot
			{
				OFFSET 2.562200 -7.039590 0.000000 
				CHANNELS 3 Zrotation Yrotation Xrotation
				JOINT LeftToeBase
				{
					OFFSET 0.157640 -0.433110 2.322550 
					CHANNELS 3 Zrotation Yrotation Xrotation
					End Site
					{
						OFFSET 0.000000 0.000000 0.000000 
					}
				}
			}
		}
	}
	JOINT RightUpLeg
	{
		OFFSET -1.305520 -1.794630 0.839290 
		CHANNELS 3 Zrotation Yrotation Xrotation
		JOINT RightLeg
		{
			OFFSET -2.542530 -6.985550 0.000000 
			CHANNELS 3 Zrotation Yrotation Xrotation
			JOINT RightFoot
			{
				OFFSET -2.568260 -7.056230 0.000000 
				CHANNELS 3 Zrotation Yrotation Xrotation
				JOINT RightToeBase
				{
					OFFSET -0.164730 -0.452590 2.363150 
					CHANNELS 3 Zrotation Yrotation Xrotation
					End Site
					{
						OFFSET 0.000000 0.000000 0.000000 
					}
				}
			}
		}
	}
	JOINT Spine
	{
		OFFSET 0.028270 2.035590 -0.193380 
		CHANNELS 3 Zrotation Yrotation Xrotation
		JOINT Spine1
		{
			OFFSET 0.056720 2.048850 -0.042750 
			CHANNELS 3 Zrotation Yrotation Xrotation
			JOINT Neck1
			{
				OFFSET -0.054170 1.746240 0.172020 
				CHANNELS 3 Zrotation Yrotation Xrotation
				JOINT Head
				{
					OFFSET 0.104070 1.761360 -0.123970 
					CHANNELS 3 Zrotation Yrotation Xrotation
					End Site
					{
						OFFSET 0.000000 0.000000 0.000000 
					}
				}
			}
			JOINT LeftArm
			{
				OFFSET 3.362410 1.200890 -0.311210 
				CHANNELS 3 Zrotation Yrotation Xrotation
				JOINT LeftForeArm
				{
					OFFSET 4.983000 -0.000000 -0.000000 
					CHANNELS 3 Zrotation Yrotation Xrotation
					JOINT LeftHand
					{
						OFFSET 3.483560 -0.000000 -0.000000 
						CHANNELS 3 Zrotation Yrotation Xrotation
						JOINT LeftHandIndex1
						{
							OFFSET 0.715260 -0.000000 -0.000000 
							CHANNELS 3 Zrotation Yrotation Xrotation
							End Site
							{
								OFFSET 0.000000 0.000000 0.000000 
							}
						}
					}
				}
			}
			JOINT RightArm
			{
				OFFSET -3.136600 1.374050 -0.404650 
				CHANNELS 3 Zrotation Yrotation Xrotation
				JOINT RightForeArm
				{
					OFFSET -5.241900 -0.000000 -0.000000 
					CHANNELS 3 Zrotation Yrotation Xrotation
					JOINT RightHand
					{
						OFFSET -3.444170 -0.000000 -0.000000 
						CHANNELS 3 Zrotation Yrotation Xrotation
						JOINT RightHandIndex1
						{
							OFFSET -0.622530 -0.000000 -0.000000 
							CHANNELS 3 Zrotation Yrotation Xrotation
							End Site
							{
								OFFSET 0.000000 0.000000 0.000000 
							}
						}
					}
				}
			}
		}
	}
}
MOTION
Frames: 7
Frame Time: 0.041667
-3.265171 16.970271 -16.342595 -134.330466 70.304290 -130.164010 -4.512552 -0.973166 -39.582189 15.193838 18.922732 74.848887 -0.084764 3.233117 -10.188551 0.686400 -5.296800 -14.757000 24.878639 15.611171 -11.339215 -3.329188 -9.313494 30.989118 0.582465 -7.556720 -13.214068 -0.066000 1.658000 -4.561500 -2.286371 -0.312137 1.639607 -1.682502 -0.367103 -2.589815 27.671288 -32.672323 1.586628 8.009300 -15.452400 10.327100 -39.117380 6.161503 -0.543443 16.957624 -23.087490 -3.656301 -0.873945 -1.006021 -5.163883 -7.125000 0.000000 0.000000 25.623463 30.709665 -91.166053 -5.883101 9.740159 -0.490784 -0.021997 -0.150445 5.668618 7.125000 0.000000 0.000000 
-3.063484 16.974383 -16.528127 -131.725309 70.700762 -127.194928 -3.462643 -1.714672 -40.610937 14.732112 18.786125 73.443663 0.082759 2.578043 -10.974487 0.379100 -3.954200 -10.947900 24.901727 15.912938 -10.483245 -3.190622 -9.126769 30.316625 0.532440 -7.376416 -13.510527 -0.015900 0.813400 -2.235600 -1.973724 -0.393102 1.463214 -1.627053 -0.411884 -2.678281 27.899558 -32.583978 1.310498 8.197300 -15.474400 10.258100 -39.515819 6.509645 -0.016050 16.918741 -23.020948 -3.633610 -0.870323 -1.040565 -6.025448 -7.125000 0.000000 0.000000 25.333622 30.237635 -91.141439 -5.812743 9.642135 -0.482112 -0.043127 -0.182820 6.138987 7.125000 0.000000 0.000000 
-2.858273 16.976243 -16.708862 -129.160733 70.999006 -124.130213 -2.455540 -2.299447 -41.692948 14.187939 18.619830 71.778714 0.071056 2.812879 -11.475598 0.572900 -4.847300 -13.473500 24.963439 16.034742 -9.886458 -3.069374 -8.959218 29.724050 0.457466 -7.116830 -13.937283 -0.001700 -0.265900 0.730500 -1.713877 -0.445010 1.298659 -1.647547 -0.445126 -2.675368 27.728249 -32.837263 1.398223 8.058900 -15.586300 10.340100 -39.817409 6.617927 0.203169 16.913822 -22.993072 -3.623937 -0.846821 -1.069989 -6.669352 -7.125000 0.000000 0.000000 25.000457 29.814271 -91.778377 -5.777056 9.593958 -0.476171 -0.032861 -0.173716 7.136829 7.125000 0.000000 0.000000 
-2.646795 16.981922 -16.885484 -126.293713 71.196536 -120.884001 -1.323781 -2.793223 -42.492150 13.563757 18.417093 69.856772 0.071909 2.904500 -11.766375 0.845800 -5.865900 -16.395900 25.314258 15.662401 -9.410794 -2.972149 -8.827666 29.244456 0.600321 -7.940137 -13.936639 -0.013100 0.738500 -2.029500 -1.619661 -0.389910 1.188348 -1.921683 -0.426577 -2.700080 27.294019 -33.159868 1.629732 7.738100 -15.700800 10.355500 -39.723750 6.463729 0.343767 16.814411 -22.858536 -3.582099 -0.847872 -1.077138 -6.739816 -7.125000 0.000000 0.000000 25.826040 29.093926 -80.905432 -6.418656 10.389563 -0.566432 0.186386 -0.158179 -6.879420 7.125000 0.000000 0.000000 
-2.429346 16.994748 -17.059659 -123.410761 71.649751 -117.805883 -0.496734 -3.152919 -42.780548 12.845600 18.154837 67.633330 0.198232 2.399794 -12.179645 0.717300 -5.412400 -15.088600 25.426226 15.082625 -8.906245 -2.902483 -8.752494 28.913996 0.769234 -8.800973 -13.696157 -0.063100 1.620900 -4.459000 -1.524305 -0.367844 1.121492 -1.986429 -0.423407 -2.754351 26.898725 -33.061182 1.429107 7.591400 -15.687300 10.038600 -39.825075 6.448747 0.020804 16.687951 -22.690416 -3.525880 -0.863156 -1.053054 -6.266151 -7.125000 0.000000 0.000000 25.538253 28.610820 -83.427841 -6.196961 10.109073 -0.535103 0.101905 -0.210285 -2.352793 7.125000 0.000000 0.000000 
-2.210330 17.014329 -17.234520 -121.576127 72.708172 -115.749587 -0.621906 -3.560769 -42.756085 12.051141 17.809173 65.167510 0.229656 2.410119 -12.619472 0.855300 -5.898000 -16.488800 24.602167 14.290076 -8.630913 -2.866682 -8.764552 28.801961 0.827077 -9.031170 -13.436977 -0.066800 1.667000 -4.586200 -1.568293 -0.505094 1.150550 -1.730605 -0.496167 -2.681840 27.892722 -32.682368 0.985312 8.119100 -15.553500 10.044900 -40.092047 6.478774 -0.729830 16.546384 -22.489841 -3.453833 -0.842494 -1.020019 -5.736614 -7.125000 0.000000 0.000000 25.081348 28.511268 -84.978456 -6.107390 10.000397 -0.522803 0.068105 -0.214740 0.386704 7.125000 0.000000 0.000000 
-1.990726 17.033029 -17.403016 -118.843774 73.301659 -112.895289 -0.244068 -3.959400 -42.574190 11.233877 17.427398 62.588706 0.164323 2.698230 -12.525057 1.259200 -7.113600 -20.052400 24.293907 13.630589 -8.395402 -2.902430 -8.865429 29.033997 0.866674 -9.170854 -13.184524 -0.079900 1.823700 -5.018600 -1.502082 -0.642695 1.282152 -1.667264 -0.573963 -2.503842 28.315208 -32.674793 0.563332 8.305500 -15.588900 10.002200 -40.197341 6.459248 -1.170525 16.450797 -22.348349 -3.403820 -0.798461 -1.011922 -5.419463 -7.125000 0.000000 0.000000 24.548808 28.491407 -85.990085 -6.075321 9.973947 -0.519399 0.012919 -0.189422 2.204508 7.125000 0.000000 0.000000 
